<?xml version="1.0" encoding="UTF-8"?>
<svg xmlns="http://www.w3.org/2000/svg" xmlns:xlink="http://www.w3.org/1999/xlink" width="1670.79pt" height="2122.41pt" viewBox="0 0 1670.79 2122.41" version="1.1">
<defs>
<clipPath id="clip1">
  <path d="M 0 0 L 1670.789063 0 L 1670.789063 1596 L 0 1596 Z M 0 0 "/>
</clipPath>
<clipPath id="clip2">
  <path d="M 0 0 L 1670.789063 0 L 1670.789063 1610 L 0 1610 Z M 0 0 "/>
</clipPath>
<clipPath id="clip3">
  <path d="M 458 1740 L 801 1740 L 801 2122.410156 L 458 2122.410156 Z M 458 1740 "/>
</clipPath>
<clipPath id="clip4">
  <path d="M 785 1746 L 1237 1746 L 1237 2122.410156 L 785 2122.410156 Z M 785 1746 "/>
</clipPath>
<clipPath id="clip5">
  <path d="M 1221 1740 L 1564 1740 L 1564 2122.410156 L 1221 2122.410156 Z M 1221 1740 "/>
</clipPath>
</defs>
<g id="surface1">
<path style=" stroke:none;fill-rule:nonzero;fill:rgb(0%,65.098572%,31.399536%);fill-opacity:1;" d="M 782.507813 259.378906 L 679.644531 188.839844 L 185.886719 997.070313 L 303.449219 1055.851563 L 794.265625 785.460938 "/>
<path style=" stroke:none;fill-rule:nonzero;fill:rgb(0%,65.098572%,31.399536%);fill-opacity:1;" d="M 1002.941406 188.839844 L 900.070313 265.261719 L 900.070313 788.398438 L 1370.308594 1055.851563 L 1508.449219 1000.011719 "/>
<path style=" stroke:none;fill-rule:nonzero;fill:rgb(0%,65.098572%,31.399536%);fill-opacity:1;" d="M 851.445313 876.570313 L 365.167969 1135.207031 L 341.65625 1258.644531 L 1332.109375 1258.644531 L 1314.46875 1132.265625 "/>
<g clip-path="url(#clip1)" clip-rule="nonzero">
<path style=" stroke:none;fill-rule:nonzero;fill:rgb(0%,65.098572%,31.399536%);fill-opacity:1;" d="M 1508.738281 1243.652344 L 1508.738281 1557.910156 L 173.835938 1557.890625 L 173.835938 1243.652344 L 255.085938 1243.652344 L 258.835938 1209.929688 L 264.710938 1157.027344 L 267.820313 1129.074219 L 241.96875 1118 L 55.960938 1038.28125 L 658.097656 55.699219 L 829.011719 181.191406 L 852.472656 198.421875 L 875.179688 180.199219 L 1028.230469 57.359375 L 1617.238281 1027.460938 L 1445.949219 1122.640625 L 1426.449219 1133.472656 L 1426.449219 1243.652344 Z M 1464.359375 1155.777344 L 1670.089844 1041.460938 L 1038.199219 0.738281 L 851.445313 150.628906 L 647.3125 0.738281 L 0.726563 1055.851563 L 227.035156 1152.839844 L 221.15625 1205.742188 L 135.925781 1205.742188 L 135.925781 1595.617188 L 1546.648438 1595.617188 L 1546.648438 1205.742188 L 1464.359375 1205.742188 "/>
</g>
<g clip-path="url(#clip2)" clip-rule="nonzero">
<path style="fill:none;stroke-width:10;stroke-linecap:butt;stroke-linejoin:miter;stroke:rgb(0%,65.098572%,31.399536%);stroke-opacity:1;stroke-miterlimit:10;" d="M 14643.59375 9166.678125 L 15466.484375 9166.678125 L 15466.484375 5267.928125 L 1359.257813 5267.928125 L 1359.257813 9166.678125 L 2211.5625 9166.678125 L 2270.3125 9695.701563 L 7.265625 10665.584375 L 6473.125 21216.717188 L 8514.453125 19717.810938 L 10381.992188 21216.717188 L 16700.898438 10809.490625 L 14643.59375 9666.326563 Z M 14643.59375 9166.678125 " transform="matrix(0.1,0,0,-0.1,0,2122.41)"/>
</g>
<path style=" stroke:none;fill-rule:nonzero;fill:rgb(0%,65.098572%,31.399536%);fill-opacity:1;" d="M 445.4375 1477.535156 C 432.175781 1481.308594 410.070313 1484.378906 380.230469 1484.378906 C 314.277344 1484.378906 270.433594 1458.898438 270.433594 1416.902344 C 270.433594 1380.808594 295.488281 1352.96875 333.066406 1336.925781 C 358.855469 1325.601563 389.070313 1320.175781 424.070313 1320.175781 C 450.964844 1320.175781 471.230469 1324.183594 478.597656 1326.78125 L 463.859375 1354.382813 C 456.859375 1352.023438 440.28125 1349.195313 418.914063 1349.195313 C 397.542969 1349.195313 377.28125 1353.4375 362.175781 1361.460938 C 341.542969 1372.550781 327.910156 1390.714844 327.910156 1412.890625 C 327.910156 1438.371094 350.382813 1455.359375 393.859375 1455.359375 C 411.542969 1455.359375 428.859375 1453.472656 441.019531 1450.167969 "/>
<path style=" stroke:none;fill-rule:nonzero;fill:rgb(0%,65.098572%,31.399536%);fill-opacity:1;" d="M 483.019531 1481.78125 L 530.179688 1322.769531 L 592.445313 1322.769531 L 625.234375 1383.402344 C 635.183594 1403.691406 641.8125 1420.207031 647.710938 1437.664063 L 648.816406 1437.664063 C 649.921875 1421.386719 653.605469 1403.929688 660.234375 1380.570313 L 677.183594 1322.769531 L 726.921875 1322.769531 L 679.765625 1481.78125 L 624.867188 1481.78125 L 590.234375 1418.320313 C 579.183594 1396.613281 572.550781 1382.222656 565.917969 1362.878906 L 564.8125 1362.878906 C 562.234375 1378.445313 556.339844 1400.859375 548.972656 1426.105469 L 532.390625 1481.78125 "/>
<path style=" stroke:none;fill-rule:nonzero;fill:rgb(0%,65.098572%,31.399536%);fill-opacity:1;" d="M 837.453125 1322.769531 L 819.027344 1384.582031 L 908.925781 1384.582031 L 927.347656 1322.769531 L 980.769531 1322.769531 L 933.613281 1481.78125 L 880.558594 1481.78125 L 900.085938 1414.78125 L 809.820313 1414.78125 L 790.292969 1481.78125 L 737.238281 1481.78125 L 784.398438 1322.769531 "/>
<path style=" stroke:none;fill-rule:nonzero;fill:rgb(0%,65.098572%,31.399536%);fill-opacity:1;" d="M 1074.71875 1352.496094 L 1009.140625 1352.496094 L 1018.351563 1322.769531 L 1202.941406 1322.769531 L 1194.089844 1352.496094 L 1127.78125 1352.496094 L 1089.460938 1481.78125 L 1036.398438 1481.78125 "/>
<path style=" stroke:none;fill-rule:nonzero;fill:rgb(0%,65.098572%,31.399536%);fill-opacity:1;" d="M 1374.261719 1477.535156 C 1360.988281 1481.308594 1338.890625 1484.378906 1309.050781 1484.378906 C 1243.101563 1484.378906 1199.25 1458.898438 1199.25 1416.902344 C 1199.25 1380.808594 1224.308594 1352.96875 1261.890625 1336.925781 C 1287.679688 1325.601563 1317.890625 1320.175781 1352.890625 1320.175781 C 1379.78125 1320.175781 1400.050781 1324.183594 1407.421875 1326.78125 L 1392.679688 1354.382813 C 1385.679688 1352.023438 1369.101563 1349.195313 1347.730469 1349.195313 C 1326.359375 1349.195313 1306.101563 1353.4375 1290.988281 1361.460938 C 1270.359375 1372.550781 1256.730469 1390.714844 1256.730469 1412.890625 C 1256.730469 1438.371094 1279.199219 1455.359375 1322.679688 1455.359375 C 1340.359375 1455.359375 1357.679688 1453.472656 1369.839844 1450.167969 "/>
<path style=" stroke:none;fill-rule:nonzero;fill:rgb(0%,65.098572%,31.399536%);fill-opacity:1;" d="M 131.492188 1760.210938 L 224.910156 1760.210938 L 224.910156 1884.65625 L 326.988281 1884.65625 L 326.988281 1760.210938 L 420.820313 1760.210938 L 420.820313 2115.847656 L 326.988281 2115.847656 L 326.988281 1971.992188 L 224.910156 1971.992188 L 224.910156 2115.847656 L 131.492188 2115.847656 "/>
<path style="fill:none;stroke-width:10;stroke-linecap:butt;stroke-linejoin:miter;stroke:rgb(13.699341%,12.199402%,12.5%);stroke-opacity:1;stroke-miterlimit:10;" d="M 1314.921875 3621.990625 L 2249.101563 3621.990625 L 2249.101563 2377.5375 L 3269.882813 2377.5375 L 3269.882813 3621.990625 L 4208.203125 3621.990625 L 4208.203125 65.623438 L 3269.882813 65.623438 L 3269.882813 1504.178125 L 2249.101563 1504.178125 L 2249.101563 65.623438 L 1314.921875 65.623438 Z M 1314.921875 3621.990625 " transform="matrix(0.1,0,0,-0.1,0,2122.41)"/>
<path style=" stroke:none;fill-rule:nonzero;fill:rgb(0%,65.098572%,31.399536%);fill-opacity:1;" d="M 566.246094 1938.757813 C 566.246094 1974.65625 571.914063 2000.457031 583.257813 2016.140625 C 594.601563 2031.832031 610.035156 2039.671875 629.554688 2039.671875 C 649.628906 2039.671875 665.160156 2031.992188 676.164063 2016.628906 C 687.160156 2001.265625 692.660156 1973.691406 692.660156 1933.902344 C 692.660156 1900.425781 686.917969 1875.96875 675.441406 1860.519531 C 663.960938 1845.078125 648.390625 1837.355469 628.730469 1837.355469 C 609.894531 1837.355469 594.773438 1845.199219 583.363281 1860.886719 C 571.949219 1876.570313 566.246094 1902.53125 566.246094 1938.757813 M 472.828125 1938.269531 C 472.828125 1880.210938 486.574219 1835.011719 514.070313 1802.664063 C 541.566406 1770.320313 579.855469 1754.144531 628.9375 1754.144531 C 679.253906 1754.144531 718.027344 1770.035156 745.246094 1801.816406 C 772.46875 1833.59375 786.078125 1878.109375 786.078125 1935.359375 C 786.078125 1976.925781 780.128906 2011.011719 768.242188 2037.609375 C 756.347656 2064.214844 739.164063 2084.914063 716.683594 2099.714844 C 694.207031 2114.511719 666.191406 2121.910156 632.648438 2121.910156 C 598.550781 2121.910156 570.335938 2115.523438 547.996094 2102.746094 C 525.652344 2089.972656 507.539063 2069.753906 493.65625 2042.097656 C 479.769531 2014.445313 472.828125 1979.835938 472.828125 1938.269531 "/>
<g clip-path="url(#clip3)" clip-rule="nonzero">
<path style="fill:none;stroke-width:10;stroke-linecap:butt;stroke-linejoin:miter;stroke:rgb(13.699341%,12.199402%,12.5%);stroke-opacity:1;stroke-miterlimit:10;" d="M 5662.460938 1836.521875 C 5662.460938 1477.5375 5719.140625 1219.529688 5832.578125 1062.69375 C 5946.015625 905.779688 6100.351563 827.38125 6295.546875 827.38125 C 6496.289063 827.38125 6651.601563 904.178125 6761.640625 1057.810938 C 6871.601563 1211.44375 6926.601563 1487.185938 6926.601563 1885.076563 C 6926.601563 2219.842188 6869.179688 2464.4125 6754.414063 2618.904688 C 6639.609375 2773.31875 6483.90625 2850.545313 6287.304688 2850.545313 C 6098.945313 2850.545313 5947.734375 2772.107813 5833.632813 2615.232813 C 5719.492188 2458.396875 5662.460938 2198.7875 5662.460938 1836.521875 Z M 4728.28125 1841.404688 C 4728.28125 2421.990625 4865.742188 2873.982813 5140.703125 3197.459375 C 5415.664063 3520.896875 5798.554688 3682.654688 6289.375 3682.654688 C 6792.539063 3682.654688 7180.273438 3523.748438 7452.460938 3205.935938 C 7724.6875 2888.1625 7860.78125 2443.00625 7860.78125 1870.50625 C 7860.78125 1454.842188 7801.289063 1113.982813 7682.421875 848.00625 C 7563.476563 581.951563 7391.640625 374.959375 7166.835938 226.951563 C 6942.070313 78.982813 6661.914063 4.998438 6326.484375 4.998438 C 5985.507813 4.998438 5703.359375 68.865625 5479.960938 196.639063 C 5256.523438 324.373438 5075.390625 526.560938 4936.5625 803.123438 C 4797.695313 1079.646875 4728.28125 1425.740625 4728.28125 1841.404688 Z M 4728.28125 1841.404688 " transform="matrix(0.1,0,0,-0.1,0,2122.41)"/>
</g>
<path style=" stroke:none;fill-rule:nonzero;fill:rgb(0%,65.098572%,31.399536%);fill-opacity:1;" d="M 799.730469 1760.210938 L 888.460938 1760.210938 L 920.402344 1959.304688 L 967.160156 1760.210938 L 1055.570313 1760.210938 L 1102.441406 1959.039063 L 1134.421875 1760.210938 L 1222.691406 1760.210938 L 1156.050781 2115.847656 L 1064.441406 2115.847656 L 1011.421875 1891.9375 L 958.597656 2115.847656 L 866.988281 2115.847656 "/>
<g clip-path="url(#clip4)" clip-rule="nonzero">
<path style="fill:none;stroke-width:10;stroke-linecap:butt;stroke-linejoin:miter;stroke:rgb(13.699341%,12.199402%,12.5%);stroke-opacity:1;stroke-miterlimit:10;" d="M 7997.304688 3621.990625 L 8884.609375 3621.990625 L 9204.023438 1631.053125 L 9671.601563 3621.990625 L 10555.703125 3621.990625 L 11024.414063 1633.709375 L 11344.21875 3621.990625 L 12226.914063 3621.990625 L 11560.507813 65.623438 L 10644.414063 65.623438 L 10114.21875 2304.725 L 9585.976563 65.623438 L 8669.882813 65.623438 Z M 7997.304688 3621.990625 " transform="matrix(0.1,0,0,-0.1,0,2122.41)"/>
</g>
<path style=" stroke:none;fill-rule:nonzero;fill:rgb(0%,65.098572%,31.399536%);fill-opacity:1;" d="M 1329.351563 1938.757813 C 1329.351563 1974.65625 1335.019531 2000.457031 1346.359375 2016.140625 C 1357.699219 2031.832031 1373.128906 2039.671875 1392.660156 2039.671875 C 1412.730469 2039.671875 1428.261719 2031.992188 1439.261719 2016.628906 C 1450.261719 2001.265625 1455.761719 1973.691406 1455.761719 1933.902344 C 1455.761719 1900.425781 1450.019531 1875.96875 1438.539063 1860.519531 C 1427.058594 1845.078125 1411.488281 1837.355469 1391.828125 1837.355469 C 1372.988281 1837.355469 1357.871094 1845.199219 1346.460938 1860.886719 C 1335.050781 1876.570313 1329.351563 1902.53125 1329.351563 1938.757813 M 1235.929688 1938.269531 C 1235.929688 1880.210938 1249.671875 1835.011719 1277.171875 1802.664063 C 1304.671875 1770.320313 1342.960938 1754.144531 1392.039063 1754.144531 C 1442.359375 1754.144531 1481.128906 1770.035156 1508.351563 1801.816406 C 1535.570313 1833.59375 1549.179688 1878.109375 1549.179688 1935.359375 C 1549.179688 1976.925781 1543.230469 2011.011719 1531.339844 2037.609375 C 1519.449219 2064.214844 1502.261719 2084.914063 1479.78125 2099.714844 C 1457.308594 2114.511719 1429.289063 2121.910156 1395.75 2121.910156 C 1361.648438 2121.910156 1333.429688 2115.523438 1311.101563 2102.746094 C 1288.75 2089.972656 1270.640625 2069.753906 1256.761719 2042.097656 C 1242.871094 2014.445313 1235.929688 1979.835938 1235.929688 1938.269531 "/>
<g clip-path="url(#clip5)" clip-rule="nonzero">
<path style="fill:none;stroke-width:10;stroke-linecap:butt;stroke-linejoin:miter;stroke:rgb(13.699341%,12.199402%,12.5%);stroke-opacity:1;stroke-miterlimit:10;" d="M 13293.515625 1836.521875 C 13293.515625 1477.5375 13350.195313 1219.529688 13463.59375 1062.69375 C 13576.992188 905.779688 13731.289063 827.38125 13926.601563 827.38125 C 14127.304688 827.38125 14282.617188 904.178125 14392.617188 1057.810938 C 14502.617188 1211.44375 14557.617188 1487.185938 14557.617188 1885.076563 C 14557.617188 2219.842188 14500.195313 2464.4125 14385.390625 2618.904688 C 14270.585938 2773.31875 14114.882813 2850.545313 13918.28125 2850.545313 C 13729.882813 2850.545313 13578.710938 2772.107813 13464.609375 2615.232813 C 13350.507813 2458.396875 13293.515625 2198.7875 13293.515625 1836.521875 Z M 12359.296875 1841.404688 C 12359.296875 2421.990625 12496.71875 2873.982813 12771.71875 3197.459375 C 13046.71875 3520.896875 13429.609375 3682.654688 13920.390625 3682.654688 C 14423.59375 3682.654688 14811.289063 3523.748438 15083.515625 3205.935938 C 15355.703125 2888.1625 15491.796875 2443.00625 15491.796875 1870.50625 C 15491.796875 1454.842188 15432.304688 1113.982813 15313.398438 848.00625 C 15194.492188 581.951563 15022.617188 374.959375 14797.8125 226.951563 C 14573.085938 78.982813 14292.890625 4.998438 13957.5 4.998438 C 13616.484375 4.998438 13334.296875 68.865625 13111.015625 196.639063 C 12887.5 324.373438 12706.40625 526.560938 12567.617188 803.123438 C 12428.710938 1079.646875 12359.296875 1425.740625 12359.296875 1841.404688 Z M 12359.296875 1841.404688 " transform="matrix(0.1,0,0,-0.1,0,2122.41)"/>
</g>
</g>
</svg>
